<svg width="36" height="18" fill="none" xmlns="http://www.w3.org/2000/svg"><path d="M33.195 0C34.715 0 36 1.26 36 2.82v12.3c0 1.62-1.286 2.88-2.805 2.88H2.805C1.285 18 .058 16.74 0 15.24V2.88C0 1.26 1.286 0 2.805 0h30.39zM17.006 12.24h-6.428v3.66h6.428v-3.66zm8.474 0h-6.428v3.66h6.428v-3.66zm-16.948 0H2.104v2.94c0 .42.292.72.701.72h5.727v-3.66zm25.364 0h-6.428v3.66h5.727c.409 0 .76-.3.701-.72v-2.94zM33.195 2.1H2.805c-.409 0-.701.3-.701.72v7.38h31.85V2.88c0-.42-.35-.78-.76-.78zm-3.448 2.88c.584 0 1.052.48 1.052 1.08 0 .6-.468 1.08-1.052 1.08h-3.74c-.585 0-1.053-.48-1.053-1.08 0-.6.468-1.08 1.052-1.08h3.74z" fill="#52503B"/></svg>