<svg width="64" height="60" fill="none" xmlns="http://www.w3.org/2000/svg"><path d="M62.13 27.151H12.26V6.892c0-1.372 1.039-2.427 2.39-2.427h8v3.06c-2.182.317-3.949 2.216-3.949 4.537v4.643c0 1.055.831 1.9 1.87 1.9h7.377c1.039 0 1.87-.845 1.87-1.9v-4.643c0-2.11-1.454-3.904-3.428-4.431V2.566c0-1.055-.832-1.9-1.87-1.9h-9.87c-3.325 0-6.027 2.744-6.027 6.12v20.26H1.87c-1.039 0-1.87.844-1.87 1.899 0 1.055.831 1.9 1.87 1.9h2.494v8.44c0 6.226 4.571 11.396 10.493 12.24l-2.286 5.17c-.415.95 0 2.005.936 2.427.207.106.519.211.727.211.727 0 1.35-.422 1.662-1.055l2.91-6.542h29.297l2.909 6.542c.312.739.935 1.055 1.662 1.055.208 0 .52 0 .728-.21a1.827 1.827 0 00.935-2.427l-2.598-5.804c4.572-1.794 7.896-6.33 7.896-11.607v-8.44h2.494c1.039 0 1.87-.845 1.87-1.9 0-.95-.831-1.794-1.87-1.794zm-36.052-12.24h-3.74v-2.849c0-.527.415-.95.935-.95h1.87c.52 0 .935.423.935.95v2.85zM56 39.285c0 4.749-3.844 8.758-8.623 8.758H16.623C11.948 48.043 8 44.14 8 39.285v-8.44h48v8.44z" fill="#52503B"/></svg>