<svg width="64" height="64" fill="none" xmlns="http://www.w3.org/2000/svg"><path d="M54.36 45.818v-.208l-6.126-25.662V5.61c0-3.116-2.45-5.61-5.513-5.61H21.075c-3.063 0-5.513 2.494-5.513 5.61v14.338L9.435 45.61c0 .104-.102.312-.102.416V62.13c0 1.039.817 1.87 1.838 1.87 1.021 0 1.838-.831 1.838-1.87v-2.91c.408-1.142 6.535-3.947 18.991-3.947s18.583 2.909 18.991 3.948v2.909c0 1.039.817 1.87 1.838 1.87 1.02 0 1.838-.831 1.838-1.87v-16c-.205-.104-.307-.208-.307-.312zM18.727 22.026h26.24l5.31 22.234h-36.86l5.31-22.234zm.408-16.416c0-1.039.817-1.974 1.94-1.974h21.646c1.02 0 1.94.832 1.94 1.974v12.78H19.135V5.61zm12.763 46.026c-5.718 0-14.192.728-18.991 3.117v-6.857h37.88v6.857c-4.697-2.39-13.171-3.117-18.89-3.117z" fill="#52503B"/></svg>