<svg width="46" height="64" fill="none" xmlns="http://www.w3.org/2000/svg"><path d="M39.704 0c3.187 0 5.86 2.602 5.963 5.932v52.032c0 3.33-2.673 6.036-5.963 6.036H6.296c-3.29 0-5.963-2.706-5.963-6.036V5.932C.333 2.602 3.006 0 6.193 0h33.511zm-.102 3.538H6.192c-1.336 0-2.364 1.145-2.364 2.394v52.032c0 1.353 1.131 2.394 2.365 2.394h33.409c1.336 0 2.364-1.145 2.364-2.394V5.932c0-1.353-1.13-2.394-2.364-2.394zm-5.449 24.247c1.85 0 3.495 1.561 3.495 3.539 0 1.977-1.541 3.538-3.495 3.538-1.953 0-3.495-1.561-3.495-3.538 0-1.978 1.542-3.539 3.495-3.539z" fill="#52503B"/></svg>