<svg width="36" height="36" fill="none" xmlns="http://www.w3.org/2000/svg"><g clip-path="url(#clip0_1_145)"><path d="M31.71 0H10.598C8.593 0 7.001 1.578 7.001 3.565V6.37a3.462 3.462 0 002.595 3.39v2.337c0 .585.472 1.052 1.061 1.052.59 0 1.062-.467 1.062-1.052V9.935h12.089c.826 0 1.533.701 1.533 1.52v13.09c0 .819-.707 1.52-1.533 1.52h-9.553a6.654 6.654 0 002.594-5.26c0-.584-.471-1.052-1.061-1.052h-11.5c-.59 0-1.061.468-1.061 1.052a6.654 6.654 0 002.595 5.26H4.347C2.342 26.065.75 27.643.75 29.63v2.805C.75 34.422 2.342 36 4.347 36h27.304c2.005 0 3.598-1.578 3.598-3.565V3.565C35.306 1.636 33.656 0 31.71 0zM14.608 21.799c-.471 2.104-2.359 3.623-4.6 3.623-2.24 0-4.127-1.578-4.6-3.623h9.2zm18.635 10.636c0 .818-.707 1.52-1.533 1.52H4.347c-.825 0-1.533-.702-1.533-1.52V29.63c0-.818.708-1.52 1.533-1.52H23.69c2.005 0 3.597-1.578 3.597-3.564V11.455c0-1.987-1.592-3.565-3.597-3.565H10.598c-.825 0-1.533-.702-1.533-1.52V3.565c0-.818.708-1.52 1.533-1.52h21.053c.826 0 1.534.702 1.534 1.52v28.87h.058z" fill="#52503B"/></g><defs><clipPath id="clip0_1_145"><path fill="#fff" d="M0 0h36v36H0z"/></clipPath></defs></svg>