<svg width="24" height="36" fill="none" xmlns="http://www.w3.org/2000/svg"><path d="M20.238 23.98a11.023 11.023 0 002.993-8.226l-.958-12.545C22.153 1.4 20.597 0 18.74 0H5.272C3.417 0 1.86 1.4 1.741 3.21L.783 15.753c-.24 3.034.838 6.01 2.993 8.227 1.856 1.983 4.43 3.209 7.183 3.442V33.9H6.29a1.06 1.06 0 00-1.077 1.05c0 .583.478 1.05 1.077 1.05h11.434a1.06 1.06 0 001.077-1.05 1.06 1.06 0 00-1.077-1.05h-4.67v-6.477c2.754-.233 5.328-1.459 7.184-3.442zM5.272 2.043h13.47c.717 0 1.376.584 1.436 1.284l.419 5.251H3.477l.419-5.251c0-.7.658-1.284 1.376-1.284zM2.938 15.87l.359-5.192h17.42l.359 5.192c.18 2.51-.659 4.843-2.395 6.71a9.26 9.26 0 01-6.704 2.86c-2.574 0-4.909-.993-6.705-2.86-1.676-1.808-2.514-4.2-2.334-6.71z" fill="#52503B"/></svg>