<svg width="32" height="32" fill="none" xmlns="http://www.w3.org/2000/svg"><path d="M18.129 32h-3.935c-1.009 0-1.816-.855-1.816-1.912V18.113H9.149c-1.009 0-1.816-.855-1.816-1.912V12.73c0-1.057.807-1.912 1.816-1.912h3.128v-3.17c0-4.579 2.724-7.648 6.76-7.648h3.026c1.01 0 1.816.855 1.816 1.912v4.075c0 1.057-.807 1.912-1.816 1.912h-2.168v2.868h2.875c.605.05 1.11.302 1.462.705.354.453.505 1.056.404 1.61l-.605 3.421c-.101.906-.858 1.56-1.816 1.56h-2.32v12.025c0 1.006-.808 1.912-1.766 1.912zm-4.894-15.648c.505 0 .908.403.908.906v12.83c0 .1.05.151.05.151h3.936s.05-.05.05-.15V17.156c0-.503.404-.905.908-.905h3.178s.05 0 .05-.05v-.051l.606-3.371c0-.1 0-.151-.05-.201 0 0-.051-.05-.101-.05h-3.733a.903.903 0 01-.908-.906V8.05c0-.905.15-1.912 1.866-1.912h2.068s.05-.05.05-.15V1.961c0-.1-.05-.15-.05-.15h-2.976c-3.027 0-4.994 2.314-4.994 5.886v4.076a.903.903 0 01-.908.905H9.149s-.05.05-.05.151v3.472c0 .1.05.15.05.15l4.086-.1z" fill="#fff"/></svg>