<svg width="200" height="70" fill="none" xmlns="http://www.w3.org/2000/svg"><g clip-path="url(#clip0_1_399)"><path fill-rule="evenodd" clip-rule="evenodd" d="M0 0l200 .006V69.97L69.876 70H0V0zm65.272 4.612H4.604v60.776h60.668V4.612zm130.141-.011H69.876v60.775h125.537V4.6zm-63.535 32.46v11.18c0 1.687.391 2.913 1.16 3.678.781.765 1.737 1.15 2.885 1.15 1.142 0 2.104-.385 2.879-1.15.775-.765 1.16-1.99 1.16-3.678v-11.18h3.823v11.262c0 2.668-.764 4.723-2.297 6.17-1.532 1.454-3.386 2.184-5.565 2.184-2.203 0-4.062-.73-5.583-2.183-1.521-1.448-2.285-3.503-2.285-6.171V37.06h3.823zm23.843-.199c1.335 0 2.652.292 3.963.876a12.46 12.46 0 013.52 2.347l-2.494 2.3c-.705-.572-1.527-1.033-2.477-1.39-.956-.35-1.789-.525-2.512-.525h-.215c-.816 0-1.574.17-2.285.514-.711.345-1.066.893-1.066 1.652 0 .59.279 1.028.839 1.302.565.28 1.363.485 2.395.613l1.556.17c2.162.257 3.846.846 5.053 1.763 1.212.91 1.818 2.312 1.818 4.197 0 1.816-.711 3.264-2.121 4.344-1.416 1.08-3.223 1.635-5.414 1.652h-.169c-1.824 0-3.445-.368-4.861-1.097-1.416-.73-2.535-1.67-3.362-2.82l2.488-2.295c.501.701 1.247 1.308 2.244 1.828.996.52 2.162.776 3.491.776h.169c1.124-.017 2.022-.24 2.698-.665.676-.427 1.014-.999 1.014-1.723 0-.776-.309-1.337-.915-1.675-.612-.345-1.498-.584-2.663-.736l-1.521-.17c-4.377-.519-6.563-2.288-6.563-5.324 0-1.78.677-3.199 2.034-4.256 1.358-1.068 3.066-1.617 5.141-1.658h.215zm-42.064.003c2.733 0 5.064.97 6.988 2.896 1.934 1.938 2.902 4.274 2.902 7.012 0 2.732-.968 5.073-2.902 7.006-1.924 1.926-4.255 2.895-6.988 2.895-2.733 0-5.059-.969-6.982-2.895-1.923-1.933-2.879-4.274-2.879-7.006 0-2.738.956-5.074 2.879-7.012 1.923-1.927 4.249-2.896 6.982-2.896zm-25.733.196v7.852h7.506v-7.852h3.823v19.424H95.43V48.52h-7.506v7.964h-3.823V37.06h3.823zm93.148-.002v3.608h-9.085v4.244h8.392v3.608h-8.392v4.355h9.085v3.608h-12.908V37.06h12.908zm-124.5-23.27v4.595H18.364v33.208h33.621V37.288h-17.04v-4.595h21.627v23.493H13.778V13.79h42.794zm57.085 26.684c-1.719 0-3.153.59-4.307 1.775-1.16 1.185-1.731 2.692-1.731 4.525 0 1.845.571 3.362 1.731 4.536 1.154 1.174 2.588 1.763 4.307 1.763 1.737 0 3.176-.59 4.336-1.763 1.148-1.173 1.731-2.691 1.731-4.536 0-1.834-.583-3.34-1.749-4.525-1.159-1.185-2.599-1.775-4.318-1.775zM92.662 13.33c2.878 0 5.315 1.075 7.313 3.217l-2.494 2.3c-1.276-1.278-2.879-1.915-4.82-1.915-1.719 0-3.152.59-4.306 1.764-1.16 1.173-1.731 2.691-1.731 4.536 0 1.833.571 3.345 1.73 4.524 1.155 1.186 2.588 1.781 4.308 1.781 1.31 0 2.47-.362 3.49-1.086v-3.357h-3.549V22.21h7.373v7.707c-2 2.148-4.436 3.222-7.314 3.222-2.734 0-5.059-.969-6.982-2.901-1.923-1.927-2.88-4.268-2.88-7.006 0-2.732.957-5.073 2.88-7.006 1.923-1.932 4.248-2.896 6.982-2.896zm63.063-.03c1.329 0 2.652.291 3.957.875a12.175 12.175 0 013.52 2.347l-2.494 2.3a8.552 8.552 0 00-2.477-1.39c-.95-.35-1.789-.525-2.506-.525h-.221c-.816 0-1.574.17-2.285.514-.711.339-1.066.893-1.066 1.652 0 .59.28 1.028.845 1.302.565.28 1.358.485 2.395.613l1.55.164c2.162.257 3.847.846 5.053 1.763 1.212.91 1.818 2.318 1.818 4.203 0 1.81-.705 3.264-2.121 4.338-1.41 1.086-3.217 1.635-5.414 1.658h-.169c-1.824 0-3.444-.367-4.861-1.097-1.41-.736-2.529-1.67-3.362-2.82l2.494-2.3c.495.706 1.247 1.313 2.244 1.827.991.52 2.162.782 3.485.782h.169c1.131-.017 2.022-.245 2.698-.665.676-.427 1.014-1.005 1.014-1.723 0-.776-.309-1.336-.915-1.681-.612-.339-1.492-.584-2.657-.736l-1.527-.163c-4.377-.52-6.562-2.294-6.562-5.33 0-1.775.676-3.194 2.034-4.256 1.358-1.063 3.071-1.612 5.14-1.653h.221zm-46.097.196v11.18c0 1.687.391 2.913 1.16 3.678.781.765 1.737 1.15 2.885 1.15 1.142 0 2.104-.385 2.879-1.15.775-.765 1.159-1.991 1.159-3.678v-11.18h3.823v11.261c0 2.668-.763 4.724-2.296 6.171-1.532 1.454-3.386 2.184-5.565 2.184-2.203 0-4.062-.73-5.583-2.184-1.521-1.447-2.285-3.503-2.285-6.17V13.495h3.823zm32.747 0v3.608h-9.085v4.244h8.392v3.608h-8.392v4.355h9.085v3.608h-12.908V13.496h12.908zm39.474-.003v3.608h-5.321v15.816h-3.823V17.1h-5.315v-3.608h14.459z" fill="#fff"/></g><defs><clipPath id="clip0_1_399"><path fill="#fff" d="M0 0h200v70H0z"/></clipPath></defs></svg>