<svg width="128" height="45" fill="none" xmlns="http://www.w3.org/2000/svg"><path fill-rule="evenodd" clip-rule="evenodd" d="M0 0l128 .004V44.98L44.72 45H0V0zm41.774 2.965H2.947v39.07h38.827V2.965zm83.291-.008H44.721v39.07h80.344V2.958zM84.402 23.825v7.187c0 1.085.25 1.873.742 2.365.5.491 1.112.739 1.847.739.73 0 1.346-.248 1.842-.74.496-.491.742-1.28.742-2.364v-7.187h2.447v7.24c0 1.715-.489 3.036-1.47 3.967-.98.934-2.166 1.403-3.561 1.403-1.41 0-2.6-.469-3.574-1.403-.973-.931-1.462-2.252-1.462-3.967v-7.24h2.447zm15.26-.128c.854 0 1.697.188 2.536.563a7.977 7.977 0 012.253 1.509l-1.597 1.479a5.603 5.603 0 00-1.585-.893c-.612-.226-1.145-.338-1.607-.338h-.138c-.523 0-1.008.108-1.463.33-.455.221-.682.574-.682 1.062 0 .38.179.66.537.837.362.18.873.312 1.533.394l.996.109c1.384.165 2.462.544 3.234 1.133.775.586 1.163 1.487 1.163 2.699 0 1.167-.455 2.098-1.357 2.792-.907.695-2.063 1.051-3.465 1.062h-.108c-1.168 0-2.205-.236-3.111-.705-.907-.47-1.623-1.074-2.152-1.813l1.592-1.475c.321.45.799.84 1.436 1.175.638.334 1.384.499 2.234.499h.109c.719-.011 1.294-.154 1.727-.428.432-.274.649-.642.649-1.107 0-.5-.198-.86-.586-1.077-.392-.222-.959-.376-1.705-.473l-.973-.109c-2.801-.334-4.2-1.471-4.2-3.423 0-1.144.433-2.056 1.302-2.736.869-.687 1.962-1.04 3.29-1.066h.138zM72.74 23.7c1.75 0 3.242.623 4.473 1.862 1.238 1.246 1.857 2.747 1.857 4.507 0 1.757-.62 3.262-1.857 4.504-1.231 1.238-2.723 1.861-4.472 1.861-1.75 0-3.238-.623-4.469-1.861-1.23-1.242-1.842-2.747-1.842-4.504 0-1.76.611-3.261 1.842-4.507 1.231-1.239 2.72-1.862 4.468-1.862zm-16.469.126v5.048h4.804v-5.048h2.447v12.487h-2.447v-5.12h-4.804v5.12h-2.446V23.825h2.446zm59.615-.002v2.32h-5.815v2.728h5.371v2.32h-5.371v2.8h5.815v2.319h-8.261V23.823h8.261zM36.206 8.865v2.953H11.753v21.348H33.27v-9.195H22.364v-2.954h13.842V36.12H8.818V8.865h27.388zM72.74 26.019c-1.1 0-2.017.379-2.756 1.14-.742.762-1.108 1.73-1.108 2.91 0 1.185.366 2.161 1.108 2.915.739.755 1.656 1.134 2.757 1.134 1.111 0 2.032-.38 2.774-1.134.735-.754 1.108-1.73 1.108-2.916 0-1.178-.373-2.147-1.119-2.909-.742-.761-1.663-1.14-2.764-1.14zM59.303 8.569c1.843 0 3.402.691 4.681 2.068l-1.596 1.48c-.817-.823-1.843-1.232-3.085-1.232-1.1 0-2.017.38-2.756 1.134-.742.754-1.108 1.73-1.108 2.916 0 1.178.366 2.15 1.108 2.908.739.762 1.656 1.145 2.756 1.145.84 0 1.582-.232 2.235-.698v-2.158h-2.272v-1.854h4.718v4.954c-1.279 1.381-2.838 2.072-4.68 2.072-1.75 0-3.238-.623-4.469-1.865-1.23-1.239-1.842-2.744-1.842-4.504 0-1.757.611-3.262 1.842-4.504 1.23-1.242 2.72-1.861 4.468-1.861zm40.361-.02a6.13 6.13 0 012.533.564 7.803 7.803 0 012.253 1.508l-1.597 1.48a5.462 5.462 0 00-1.585-.894c-.608-.225-1.145-.338-1.604-.338h-.142c-.522 0-1.007.109-1.462.33-.455.218-.682.575-.682 1.063 0 .378.179.66.54.836.362.18.87.312 1.534.394l.992.106c1.383.165 2.461.544 3.233 1.133.776.585 1.164 1.49 1.164 2.702 0 1.164-.451 2.098-1.357 2.789-.903.698-2.059 1.05-3.465 1.066h-.109c-1.167 0-2.204-.237-3.11-.706-.903-.473-1.62-1.073-2.152-1.813l1.596-1.478c.317.454.798.844 1.436 1.174.634.334 1.384.503 2.23.503h.109c.723-.011 1.294-.157 1.726-.427.433-.274.649-.646.649-1.108 0-.499-.197-.86-.585-1.08-.392-.218-.955-.376-1.701-.474l-.977-.105c-2.801-.334-4.2-1.475-4.2-3.426 0-1.141.433-2.053 1.302-2.736.869-.683 1.965-1.036 3.29-1.062h.141zm-29.502.127v7.187c0 1.085.25 1.873.742 2.364.5.492 1.112.74 1.847.74.73 0 1.346-.248 1.842-.74.496-.491.742-1.28.742-2.364V8.676h2.447v7.24c0 1.715-.489 3.036-1.47 3.967-.98.934-2.166 1.403-3.561 1.403-1.41 0-2.6-.469-3.574-1.403-.973-.931-1.462-2.252-1.462-3.967v-7.24h2.447zm20.958 0v2.32h-5.815v2.728h5.371v2.32h-5.37v2.799h5.814v2.32h-8.26V8.675h8.261zm25.263-.002v2.32h-3.405V21.16h-2.447V10.994h-3.402v-2.32h9.254z" fill="#fff"/></svg>