<svg width="32" height="32" fill="none" xmlns="http://www.w3.org/2000/svg"><g clip-path="url(#clip0_1_385)"><path d="M24.038 0C28.422 0 32 3.533 32 7.924v16.101C32 28.416 28.472 32 24.088 32H7.962C3.578 32 0 28.467 0 24.076V7.924A7.9 7.9 0 017.912 0h16.126zm0 1.767H7.912c-3.377 0-6.148 2.776-6.148 6.157v16.152c0 3.432 2.771 6.208 6.148 6.208h16.176c3.377 0 6.148-2.776 6.148-6.208V7.975a6.199 6.199 0 00-6.198-6.208zM15.975 8.58c4.082 0 7.408 3.332 7.408 7.42s-3.326 7.42-7.408 7.42c-4.082 0-7.408-3.332-7.408-7.42s3.326-7.42 7.408-7.42zm0 1.767A5.64 5.64 0 0010.33 16a5.64 5.64 0 005.644 5.653A5.64 5.64 0 0021.619 16a5.64 5.64 0 00-5.644-5.653zm8.113-5.4c1.058 0 1.915.857 1.915 1.917a1.916 1.916 0 11-3.83 0c0-1.06.857-1.918 1.915-1.918z" fill="#fff"/></g><defs><clipPath id="clip0_1_385"><path fill="#fff" d="M0 0h32v32H0z"/></clipPath></defs></svg>