<svg width="36" height="36" fill="none" xmlns="http://www.w3.org/2000/svg"><path d="M23.143 11.35l.265.01c1.224.093 2.224.82 2.715 1.948l6.838 16.177h1.987c.584 0 1.052.403 1.052.979a1.04 1.04 0 01-1.052 1.036H1.052C.468 31.5 0 31.097 0 30.521a1.04 1.04 0 011.052-1.036h1.286l5.96-14.392c.468-1.21 1.579-1.958 2.923-1.958 1.344.058 2.454.749 2.98 1.958l2.689 6.275 3.33-8.06c.468-1.209 1.579-1.957 2.923-1.957zm0 2.073l-.058.002a1.151 1.151 0 00-.994.69l-4.15 9.959 2.338 5.469h1.929V28.16c-1.169-.518-1.987-1.9-1.987-3.627 0-2.188 1.344-3.857 2.98-3.857 1.637 0 2.98 1.727 2.98 3.857 0 1.727-.759 3.109-1.928 3.627v1.382h6.487l-6.545-15.429c-.234-.633-.877-.69-1.052-.69zM11.22 15.208c-.175 0-.76.057-1.052.69L4.5 29.544h13.558L12.273 15.9c-.234-.633-.877-.691-1.052-.691zm11.98 7.426c-.35 0-.935.691-.935 1.843 0 1.15.526 1.842.935 1.842.41 0 .935-.691.935-1.842 0-1.152-.584-1.843-.935-1.843zM30.8 4.5c2.045 0 3.681 1.612 3.681 3.627 0 2.015-1.694 3.627-3.681 3.627s-3.682-1.612-3.682-3.627c0-2.015 1.636-3.627 3.682-3.627zm0 2.072c-.877 0-1.637.691-1.637 1.612 0 .922.702 1.612 1.637 1.612s1.636-.69 1.636-1.612c0-.92-.76-1.612-1.636-1.612z" fill="#52503B"/></svg>