<svg width="36" height="36" fill="none" xmlns="http://www.w3.org/2000/svg"><g clip-path="url(#clip0_1_172)"><path d="M35.863 20.672c-1.289-4.095-4.217-8.541-8.14-12.461-3.866-3.92-8.317-6.786-12.416-8.073-1.464-.468-3.104.292-3.631 1.755L.198 32.022c-.41 1.111-.176 2.281.644 3.1.585.586 1.288.878 2.05.878a3.32 3.32 0 001.054-.175l17.627-6.728c.059 0 .059 0 .117-.059l2.109-.819 10.248-3.92a2.906 2.906 0 001.816-3.627zM3.243 33.835c-.469.176-.82-.117-.937-.175-.117-.117-.41-.41-.176-.936l2.46-6.435c.585 1.287 1.815 2.164 3.338 2.164 1.991 0 3.63-1.638 3.63-3.627 0-1.99-1.639-3.627-3.63-3.627a3.42 3.42 0 00-1.523.35L10.973 9.5c.762.467 1.523.935 2.284 1.52a3.576 3.576 0 00-1.522 2.925c0 1.99 1.64 3.627 3.63 3.627a3.606 3.606 0 003.339-2.223c2.81 2.633 5.563 5.792 7.906 9.653l-1.406.527c0-1.99-1.64-3.627-3.63-3.627-1.992 0-3.632 1.638-3.632 3.627 0 .936.352 1.755.937 2.399L3.243 33.835zm3.045-9.01c0-.877.703-1.579 1.581-1.579.879 0 1.582.702 1.582 1.58 0 .877-.703 1.58-1.582 1.58a1.574 1.574 0 01-1.58-1.58zm10.659-10.998v.117c0 .878-.703 1.58-1.581 1.58a1.574 1.574 0 01-1.582-1.58c0-.819.586-1.462 1.406-1.58.585.469 1.171.937 1.757 1.463zm4.216 13.222c-.703-.175-1.23-.819-1.23-1.521 0-.878.703-1.58 1.582-1.58.878 0 1.58.702 1.58 1.58 0 .351-.116.644-.292.878l-1.64.643zm12.24-4.68l-4.86 1.872c-2.87-4.856-6.443-8.717-9.898-11.7-.058 0-.058-.06-.117-.06a35.386 35.386 0 00-2.46-1.93l-.058-.058c-1.523-1.112-2.987-2.106-4.334-2.926l1.874-4.972a.88.88 0 01.82-.585c.117 0 .176 0 .293.058 3.748 1.17 7.964 3.978 11.595 7.606 3.631 3.627 6.442 7.898 7.614 11.642.175.41-.059.877-.469 1.053z" fill="#52503B"/></g><defs><clipPath id="clip0_1_172"><path fill="#fff" d="M0 0h36v36H0z"/></clipPath></defs></svg>