<svg width="32" height="32" fill="none" xmlns="http://www.w3.org/2000/svg"><path d="M16.04 24.36c-1.778-2.27-2.793-4.231-3.149-5.986-1.574-6.348 7.922-6.348 6.348 0-.406 1.755-1.473 3.82-3.2 5.987zm9.648 5.214c-2.945 1.29-5.89-.775-8.379-3.562 7.313-9.29 3.301-14.348-1.27-14.348-3.859 0-5.991 3.252-5.128 7.174.508 2.116 1.777 4.439 3.86 7.123-2.286 2.529-4.216 3.768-5.993 3.922-3.504.568-6.246-2.89-4.926-6.451 1.067-2.787 7.871-16.516 8.176-17.239 1.066-2.167 1.777-4.077 4.164-4.077 2.285 0 3.098 1.806 4.215 4.284 2.59 5.006 6.297 12.645 8.074 17.032.762 2.322-.203 5.058-2.793 6.142zm3.352-9.703C19.95.31 19.442 0 16.04 0c-3.2 0-4.57 2.27-5.942 5.161C2.583 20.387 1.923 22.451 1.77 22.71.044 27.664 3.7 32 8.067 32c1.524 0 4.316-.412 7.922-4.438C20.153 32.155 23.149 32 23.911 32c4.418 0 8.074-4.387 6.297-9.29.05-.31-1.168-2.787-1.168-2.838z" fill="#fff"/></svg>