<svg width="36" height="36" fill="none" xmlns="http://www.w3.org/2000/svg"><path d="M26.613 0C30.07 0 32.941 2.81 33 6.38v12.586a1.85 1.85 0 01-1.875 1.873h-1.23v12.468c0 1.464-1.23 2.693-2.696 2.693H25.5c-1.465 0-2.695-1.23-2.695-2.693V1.873A1.85 1.85 0 0124.68 0h1.933zM9.328.059a1.05 1.05 0 011.055 1.053v8.956h3.281V1.171A1.05 1.05 0 0114.72.117c.586 0 .996.468 1.054.995v14.986c0 .878-.644 1.521-1.523 1.521h-1.348v15.63c0 1.463-1.23 2.692-2.695 2.692h-1.64c-1.465 0-2.696-1.229-2.696-2.692V17.56H4.523C3.645 17.56 3 16.916 3 16.038V1.112C3 .585 3.41.06 3.996.06a1.05 1.05 0 011.055 1.053v8.898h3.222V1.112A1.05 1.05 0 019.328.06zm18.516 20.78h-2.989v12.468a.65.65 0 00.645.644h1.7c.35 0 .644-.351.644-.702v-12.41zm-16.992-3.22h-2.93v15.688a.65.65 0 00.644.644h1.641a.65.65 0 00.645-.644V17.62zM26.555 2.05h-1.758v16.74h6.094V6.38c0-2.4-1.934-4.331-4.336-4.331zM13.723 12.06H5.05v3.512h8.672V12.06z" fill="#52503B"/></svg>