<svg width="36" height="36" fill="none" xmlns="http://www.w3.org/2000/svg"><path d="M31.442 7.655h-6.254V5.603a4.109 4.109 0 00-4.09-4.103h-6.195c-2.28 0-4.091 1.876-4.091 4.103v2.052H4.558C2.045 7.655 0 9.706 0 12.226v5.745a1.05 1.05 0 001.052 1.055h.526v11.137A4.321 4.321 0 005.903 34.5h24.194a4.321 4.321 0 004.325-4.337V19.026h.526A1.05 1.05 0 0036 17.97v-5.745c0-2.52-2.045-4.571-4.558-4.571zM12.857 5.603c0-1.114.935-2.051 2.046-2.051h6.136c1.11 0 2.045.937 2.045 2.051v2.052H12.857V5.603zM2.104 12.226c0-1.348 1.11-2.52 2.513-2.52H31.5c1.344 0 2.513 1.114 2.513 2.52v4.748H2.103v-4.748zm30.273 17.878a2.285 2.285 0 01-2.28 2.286H5.903a2.285 2.285 0 01-2.28-2.286V18.967h7.189v3.634a1.05 1.05 0 001.052 1.055 1.05 1.05 0 001.052-1.055v-3.634H23.2v3.634a1.05 1.05 0 001.052 1.055 1.05 1.05 0 001.052-1.055v-3.634h7.188v11.137h-.116z" fill="#52503B"/></svg>