<svg width="36" height="30" fill="none" xmlns="http://www.w3.org/2000/svg"><path d="M29.113 9.146l.195.01c.447.05.837.268 1.093.618l3.396 4.512c.351.457.41 1.085.117 1.6-.176.285-.41.513-.703.685l2.576 4.283c.293.514.293 1.085-.058 1.6-.234.513-.761.799-1.347.799h-4.215v4.969c0 .571-.468 1.028-1.054 1.028a1.037 1.037 0 01-1.053-1.028v-4.969h-4.274c-.527 0-1.054-.343-1.347-.8a1.464 1.464 0 010-1.542l2.576-4.34c-.293-.115-.527-.4-.702-.686a1.447 1.447 0 01.117-1.599l3.395-4.512c.293-.4.761-.628 1.288-.628zM9.677.75c.527 0 .995.228 1.288.628l5.503 7.197c.351.457.41 1.085.117 1.599a1.66 1.66 0 01-1.464.857l4.157 7.139a1.463 1.463 0 010 1.542c-.234.457-.761.742-1.347.742H10.79v7.71c0 .572-.468 1.029-1.054 1.029a1.037 1.037 0 01-1.054-1.028v-7.71H1.598c-.586 0-1.113-.343-1.406-.857-.292-.457-.234-1.085.059-1.542l4.566-7.025h-.526c-.586 0-1.113-.343-1.406-.857a1.447 1.447 0 01.118-1.6l5.386-7.196c.292-.4.76-.628 1.288-.628zm19.378 10.68l-2.635 3.484a1.4 1.4 0 01.586.572 1.464 1.464 0 010 1.542l-2.46 4.169h9.017l-2.46-4.17a1.464 1.464 0 010-1.542 1.4 1.4 0 01.586-.57l-2.634-3.485zM9.677 3.092L5.169 9.089h.41c.585 0 1.17.342 1.405.8.234.456.234 1.084-.059 1.541l-4.508 7.025h14.636l-4.157-7.082a1.464 1.464 0 010-1.542c.293-.4.762-.742 1.288-.742L9.678 3.092z" fill="#52503B"/></svg>