<svg width="36" height="36" fill="none" xmlns="http://www.w3.org/2000/svg"><g clip-path="url(#clip0_1_305)"><path d="M31.47 26.32c2.53 0 4.53 2.03 4.53 4.465 0 2.436-2.059 4.465-4.53 4.465-2.47 0-4.529-2.03-4.529-4.465s2.059-4.464 4.53-4.464zM33.119.75c.588 0 1.058.464 1.058 1.044 0 .58-.47 1.043-1.058 1.043-17.118 0-31.06 13.684-31 30.616 0 .58-.47 1.043-1.06 1.043A1.047 1.047 0 010 33.452C0 15.42 14.823.809 33.118.75zm-.06 9.451c.59 0 1.06.464 1.06 1.044a.984.984 0 01-1 .986c-11.883 0-21.53 9.509-21.47 21.164 0 .58-.471 1.043-1.06 1.043a1.047 1.047 0 01-1.059-1.044c0-12.756 10.53-23.193 23.53-23.193zm0 9.336c.59 0 1.06.463 1.06 1.043 0 .58-.412.986-1 .986-6.589 0-12 5.276-12 11.829 0 .58-.47 1.043-1.06 1.043A1.047 1.047 0 0119 33.394c0-7.653 6.294-13.857 14.059-13.857zm-1.587 8.871c-1.353 0-2.471 1.102-2.471 2.435 0 1.334 1.118 2.436 2.47 2.436 1.354 0 2.471-1.102 2.471-2.436 0-1.333-1.117-2.435-2.47-2.435z" fill="#52503B"/></g><defs><clipPath id="clip0_1_305"><path fill="#fff" d="M0 0h36v36H0z"/></clipPath></defs></svg>