<svg width="256" height="90" fill="none" xmlns="http://www.w3.org/2000/svg"><g clip-path="url(#clip0_1_32)"><path fill-rule="evenodd" clip-rule="evenodd" d="M0 0l256 .008v89.955L89.441 90H0V0zm83.548 5.93H5.893v78.14h77.655V5.93zm166.581-.015H89.441v78.14H250.13V5.915zM168.804 47.65v14.374c0 2.17.5 3.746 1.485 4.73.999.983 2.223 1.478 3.692 1.478 1.462 0 2.693-.495 3.685-1.479.992-.983 1.485-2.56 1.485-4.729V47.65h4.893v14.48c0 3.43-.977 6.072-2.939 7.933-1.962 1.87-4.334 2.808-7.124 2.808-2.82 0-5.199-.939-7.146-2.808-1.947-1.861-2.924-4.503-2.924-7.934V47.65h4.893zm30.519-.255c1.708 0 3.394.375 5.073 1.125a15.954 15.954 0 014.505 3.018l-3.192 2.957c-.903-.735-1.955-1.328-3.171-1.786-1.223-.45-2.29-.676-3.215-.676h-.276a6.576 6.576 0 00-2.924.66c-.91.444-1.365 1.15-1.365 2.125 0 .758.358 1.321 1.074 1.674.724.36 1.746.623 3.066.788l1.992.218c2.767.33 4.923 1.088 6.467 2.267 1.552 1.17 2.328 2.972 2.328 5.397 0 2.334-.91 4.196-2.716 5.584-1.812 1.39-4.125 2.102-6.93 2.125h-.216c-2.335 0-4.409-.473-6.221-1.411-1.813-.939-3.245-2.147-4.305-3.626l3.186-2.95c.641.9 1.596 1.681 2.872 2.35 1.275.668 2.767.998 4.468.998h.216c1.44-.023 2.589-.308 3.454-.856.865-.548 1.298-1.283 1.298-2.214 0-.999-.395-1.72-1.171-2.155-.783-.442-1.917-.75-3.409-.945l-1.947-.218c-5.602-.668-8.4-2.942-8.4-6.846 0-2.29.866-4.113 2.604-5.472 1.738-1.373 3.923-2.079 6.579-2.132h.276zm-53.842.003c3.498 0 6.482 1.246 8.944 3.723 2.477 2.492 3.715 5.495 3.715 9.015 0 3.513-1.238 6.523-3.715 9.008-2.462 2.477-5.446 3.723-8.944 3.723-3.499 0-6.475-1.246-8.937-3.723-2.461-2.485-3.685-5.495-3.685-9.008 0-3.52 1.224-6.523 3.685-9.015 2.462-2.477 5.438-3.723 8.937-3.723zm-32.938.252v10.096h9.608V47.65h4.893v24.973h-4.893V62.384h-9.608v10.239h-4.894V47.65h4.894zm119.23-.003v4.639h-11.63v5.457h10.742v4.639h-10.742v5.6h11.63v4.638h-16.524V47.647h16.524zM72.412 17.729v5.907H23.506v42.696h43.035v-18.39H44.729v-5.908h27.683V72.24H17.635V17.73h54.776zm73.069 34.308c-2.201 0-4.036.758-5.513 2.282-1.484 1.524-2.215 3.46-2.215 5.817 0 2.372.731 4.324 2.215 5.833 1.477 1.509 3.312 2.267 5.513 2.267 2.223 0 4.065-.758 5.55-2.267 1.469-1.509 2.215-3.46 2.215-5.833 0-2.357-.746-4.293-2.237-5.817-1.485-1.524-3.327-2.282-5.528-2.282zM118.607 17.14c3.685 0 6.803 1.381 9.362 4.136l-3.193 2.957c-1.634-1.643-3.685-2.462-6.169-2.462-2.201 0-4.036.759-5.513 2.267-1.484 1.509-2.215 3.46-2.215 5.833 0 2.357.731 4.3 2.215 5.817 1.477 1.524 3.312 2.29 5.513 2.29 1.678 0 3.163-.466 4.468-1.397v-4.316h-4.543v-3.708h9.437v9.908c-2.559 2.763-5.677 4.144-9.362 4.144-3.499 0-6.475-1.246-8.937-3.73-2.462-2.478-3.685-5.488-3.685-9.008 0-3.513 1.223-6.523 3.685-9.008 2.462-2.484 5.438-3.723 8.937-3.723zm80.721-.04c1.701 0 3.394.376 5.065 1.126a15.58 15.58 0 014.506 3.018l-3.193 2.957c-.895-.735-1.954-1.336-3.17-1.786-1.216-.45-2.29-.676-3.208-.676h-.283a6.576 6.576 0 00-2.924.66c-.91.436-1.365 1.15-1.365 2.125 0 .758.358 1.321 1.081 1.674.724.36 1.738.623 3.066.788l1.984.21c2.768.33 4.924 1.089 6.468 2.267 1.552 1.171 2.327 2.98 2.327 5.405 0 2.327-.902 4.196-2.715 5.577-1.805 1.396-4.118 2.101-6.93 2.131h-.216c-2.335 0-4.409-.472-6.222-1.41-1.805-.947-3.237-2.148-4.304-3.626l3.193-2.958c.634.909 1.596 1.69 2.872 2.35 1.268.668 2.767 1.006 4.461 1.006h.216c1.447-.023 2.589-.316 3.454-.856.865-.548 1.298-1.291 1.298-2.214 0-.999-.396-1.72-1.171-2.162-.784-.436-1.91-.75-3.402-.946l-1.954-.21c-5.603-.668-8.4-2.95-8.4-6.853 0-2.282.865-4.106 2.603-5.473 1.739-1.366 3.932-2.071 6.58-2.124h.283zm-59.004.253v14.374c0 2.17.5 3.746 1.485 4.729.999.983 2.223 1.479 3.692 1.479 1.462 0 2.693-.496 3.685-1.48.992-.982 1.485-2.559 1.485-4.728V17.352h4.893V31.83c0 3.43-.977 6.073-2.939 7.934-1.962 1.87-4.334 2.807-7.124 2.807-2.82 0-5.199-.938-7.146-2.807-1.947-1.861-2.924-4.504-2.924-7.934V17.35h4.893zm41.917 0v4.638h-11.63v5.457h10.742v4.64h-10.742v5.599h11.63v4.639h-16.524V17.35h16.524zm50.525-.003v4.638h-6.81v20.335h-4.894V21.987h-6.803V17.35h18.507z" fill="#fff"/></g><defs><clipPath id="clip0_1_32"><path fill="#fff" d="M0 0h256v90H0z"/></clipPath></defs></svg>